<svg version="1.2" xmlns="http://www.w3.org/2000/svg" viewBox="0 0 200 68" width="200" height="68">
	<title>logoPSH</title>
	<style>
		.s0 { fill: #000000 } 
		.s1 { fill: none;stroke: #000000;stroke-width: 1.5 } 
	</style>
	<path id="palo santo" class="s0" aria-label="palo santo"  d="m17.1 43h3.3v-7.7h2.5c4 0 7.3-1.4 7.3-5.6c0-3.9-2.8-5.4-7.1-5.4h-6zm3.3-10.5v-5.3h2.4c2.1 0 4 0.4 4 2.6c0 2.2-1.9 2.7-4.1 2.7zm8.9 10.5h3.7l1.7-4.2h8.1l1.7 4.2h3.8l-8-18.6h-2.9zm6.6-7.1l2.9-7.6l2.8 7.6zm14.4 7.1h11.2v-3h-7.9v-15.7h-3.3zm11.8-9.3c0 5.8 4.2 9.8 9.9 9.8c5.9 0 10.1-4 10.1-9.8c0-6-4.2-9.8-10.1-9.8c-5.7 0-9.9 3.8-9.9 9.8zm3.6 0c0-3.9 2.5-6.9 6.4-6.9c3.8 0 6.4 3 6.4 6.9c0 3.9-2.6 6.8-6.4 6.8c-3.8 0-6.4-2.9-6.4-6.8zm41.3-7.8c-1.4-1.3-3.6-2-5.4-2c-3.4 0-6.9 1.7-6.9 5.5c0 3.5 2.5 4.6 4.8 5.3c2.3 0.7 4.3 1.3 4.3 3.2c0 2-1.9 2.8-3.4 2.8c-1.5 0-3.2-0.8-4.1-2.1l-2.4 2.2c1.5 1.8 4 2.7 6.4 2.7c3.7 0 6.8-1.9 6.8-5.9c0-3.7-3-4.8-5.4-5.5c-2.1-0.7-3.6-1.2-3.6-2.9c0-1.8 1.8-2.5 3.3-2.5c1.3 0 2.7 0.7 3.4 1.6zm1.2 17.1h3.7l1.7-4.3h8.1l1.8 4.3h3.7l-8-18.6h-2.9zm6.6-7.2l2.9-7.6l2.9 7.6zm14.3 7.2h3.3v-14.5h0.1l8.8 14.5h4.2v-18.7h-3.3v14l-8.7-14h-4.4zm24.3 0h3.3v-15.8h5.8v-2.9h-14.8v2.9h5.7zm9.5-9.3c0 5.8 4.3 9.8 10 9.8c5.8 0 10.1-4 10.1-9.8c0-6-4.3-9.8-10.1-9.8c-5.7 0-10 3.8-10 9.8zm3.6 0c0-3.9 2.6-6.9 6.4-6.9c3.9 0 6.5 3 6.5 6.9c0 3.9-2.6 6.8-6.5 6.8c-3.7 0-6.4-2.9-6.4-6.8z"/>
	<path id="Forma 1" class="s1" d="m4 5h191v59h-191z"/>
</svg>